<svg width="16" height="20" viewBox="0 0 16 20" fill="none" xmlns="http://www.w3.org/2000/svg">
<path d="M7.25829 19.1667C7.16166 19.1666 7.06579 19.1496 6.97496 19.1167C6.79974 19.0525 6.65113 18.9314 6.55292 18.7728C6.45471 18.6141 6.41258 18.4271 6.43329 18.2417L7.07495 12.3333H2.16662C2.01523 12.3336 1.86664 12.2925 1.7368 12.2147C1.60696 12.1368 1.50079 12.0251 1.42968 11.8914C1.35857 11.7578 1.32521 11.6073 1.33319 11.4561C1.34117 11.3049 1.39018 11.1588 1.47495 11.0333L8.04996 1.2C8.15394 1.04611 8.30636 0.931378 8.483 0.874007C8.65964 0.816636 8.85039 0.819918 9.02495 0.883333C9.19277 0.945635 9.33606 1.06032 9.43362 1.21041C9.53118 1.3605 9.57781 1.53801 9.56662 1.71667L8.92495 7.66667H13.8333C13.9847 7.66644 14.1333 7.70745 14.2631 7.78531C14.3929 7.86317 14.4991 7.97492 14.5702 8.10858C14.6413 8.24223 14.6747 8.39273 14.6667 8.54391C14.6587 8.69509 14.6097 8.84124 14.525 8.96667L7.94995 18.8C7.87351 18.9131 7.77046 19.0057 7.64986 19.0696C7.52925 19.1335 7.39479 19.1669 7.25829 19.1667Z" stroke="white" stroke-width="1.5"/>
</svg>
