<svg width="22" height="22" viewBox="0 0 22 22" fill="none" xmlns="http://www.w3.org/2000/svg">
<g clip-path="url(#clip0_407_3470)">
<path opacity="0.9" d="M11.9122 2.75C7.35175 2.75 3.66675 6.44417 3.66675 11H0.916748L4.48716 14.5704L4.55133 14.7033L8.25008 11H5.50008C5.50008 7.45708 8.37383 4.58333 11.9167 4.58333C15.4597 4.58333 18.3334 7.45708 18.3334 11C18.3334 14.5429 15.4597 17.4167 11.9167 17.4167C10.143 17.4167 8.54342 16.6925 7.38383 15.5329L6.08675 16.83C7.57633 18.3242 9.63425 19.25 11.9122 19.25C16.4726 19.25 20.1667 15.5558 20.1667 11C20.1667 6.44417 16.4726 2.75 11.9122 2.75ZM11.0001 7.33333V11.9167L14.9234 14.245L15.5834 13.1313L12.3751 11.2292V7.33333H11.0001Z" fill="#72BCB8"/>
</g>
<defs>
<clipPath id="clip0_407_3470">
<rect width="22" height="22" fill="white"/>
</clipPath>
</defs>
</svg>
